<svg version="1.1" xmlns="http://www.w3.org/2000/svg" xmlns:xlink="http://www.w3.org/1999/xlink" width="127.04065" height="127.04064" viewBox="0,0,127.04065,127.04064"><g transform="translate(-176.47968,-116.47968)"><g stroke-miterlimit="10"><g stroke="#000000" stroke-width="0" stroke-linecap="butt"><path d="M176.4797,232.93006c0,-14.3389 0,-79.81814 0,-105.79092c0,-6.60858 4.0975,-10.65946 10.70285,-10.65946c22.75051,0 75.25149,0 92.55237,0c4.36802,0 9.12766,0.01765 13.23365,0.03856c5.9658,0.03038 10.55176,4.68024 10.55176,10.67983c0,4.07702 0,8.79453 0,13.14031c0,17.33657 0,69.91902 0,92.59168c0,6.53912 -5.14802,10.59026 -10.55789,10.59026c-14.33011,0 -79.88427,0 -105.84862,0c-6.59365,0 -10.63414,-5.16589 -10.63414,-10.59026z" fill="#c1a4fa"/><path d="M176.4797,232.93006c0,-14.3389 0,-79.81814 0,-105.79092c0,-6.60858 4.0975,-10.65946 10.70285,-10.65946c22.75051,0 92.55237,0 92.55237,0l23.78541,23.8587c0,0 0,69.91902 0,92.59168c0,6.53912 -5.14802,10.59026 -10.55789,10.59026c-14.33011,0 -79.88427,0 -105.84862,0c-6.59365,0 -10.63414,-5.16589 -10.63414,-10.59026z" fill="#f0ebfa"/></g><g fill="none" stroke="#ffffff" stroke-width="15" stroke-linecap="round"><g><path d="M192.35582,167.29953l15.1015,44.63927"/><path d="M207.45732,211.9388l15.10148,-44.63927"/><path d="M222.5588,167.29953l15.1015,44.63927"/><path d="M237.6603,211.9388l15.10148,-63.87758"/></g><path d="M287.64421,211.9388c0,0 -12.1286,0 -15.65523,0c-1.78254,0 -4.63296,-2.14562 -5.1887,-4.49633c-2.0196,-8.54267 -14.0385,-59.38124 -14.0385,-59.38124"/></g><g fill="none" stroke-width="8" stroke-linecap="round"><g stroke="#a47cf3"><path d="M192.35582,167.29953l15.1015,44.63927"/><path d="M207.45732,211.9388l15.10148,-44.63927"/><path d="M222.5588,167.29953l15.1015,44.63927"/><path d="M237.6603,211.9388l15.10148,-63.87758"/></g><path d="M287.64421,211.9388c0,0 -12.1286,0 -15.65523,0c-1.78254,0 -4.63296,-2.14562 -5.1887,-4.49633c-2.0196,-8.54267 -14.0385,-59.38124 -14.0385,-59.38124" stroke="#855cd6"/></g><path d="M276.83341,116.48451l2.89635,0.02238l23.78033,23.80486l-0.00641,2.93337l-26.65576,0.00484z" fill="#e0d8f0" stroke="#000000" stroke-width="0" stroke-linecap="butt"/><path d="M279.73492,116.47968l23.78541,23.8587l-23.7718,0.00455z" fill="#f0ebfa" stroke="#000000" stroke-width="0" stroke-linecap="butt"/></g></g></svg>
